<?xml version="1.0" ?><svg height="297.000000mm" version="1.0" viewBox="0 0 794 1123" width="210.000000mm" xmlns="http://www.w3.org/2000/svg">
  <g font-family="Helvetica" font-size="12pt" stroke-linecap="round">
    <g stroke="#000000" stroke-width="1.0">
      <line x1="204.00" x2="222.49" y1="98.00" y2="98.00"/>
    </g>
    <g stroke="#000000" stroke-width="1.0">
      <line x1="222.49" x2="241.00" y1="98.00" y2="98.00"/>
    </g>
    <text fill="#000000" font-family="helvetica" font-size="12pt" x="242.30" y="101.00">OH</text>
    <text fill="#000000" font-family="helvetica" font-size="12pt" x="190.30" y="101.00">R</text>
    <text fill="#000000" font-family="helvetica" font-size="12pt" textLength="51" x="74.00" y="99.50"><tspan>Alcohol</tspan></text>
    <g stroke="#000000" stroke-linecap="butt" stroke-width="1.0">
      <line x1="233.00" x2="233.00" y1="174.00" y2="182.00"/>
      <line x1="229.00" x2="229.00" y1="174.00" y2="182.00"/>
    </g>
    <g stroke="#000000" stroke-linecap="butt" stroke-width="1.0">
      <line x1="223.00" x2="216.00" y1="197.11" y2="201.15"/>
    </g>
    <g stroke="#000000" stroke-linecap="butt" stroke-width="1.0">
      <line x1="239.00" x2="246.00" y1="197.11" y2="201.15"/>
    </g>
    <text fill="#000000" font-family="helvetica" font-size="12pt" x="224.30" y="195.49">C</text>
    <text fill="#000000" font-family="helvetica" font-size="12pt" x="224.30" y="169.00">O</text>
    <text fill="#000000" font-family="helvetica" font-size="12pt" x="202.30" y="208.73">R</text>
    <text fill="#000000" font-family="helvetica" font-size="12pt" x="247.30" y="208.73">H</text>
    <text fill="#000000" font-family="helvetica" font-size="12pt" textLength="65" x="73.00" y="187.50"><tspan>Aldehyde</tspan></text>
    <g stroke="#000000" stroke-linecap="butt" stroke-width="1.0">
      <line x1="230.00" x2="240.00" y1="291.00" y2="291.00"/>
      <line x1="230.00" x2="240.00" y1="295.00" y2="295.00"/>
    </g>
    <g stroke="#000000" stroke-linecap="butt" stroke-width="1.0">
      <line x1="253.11" x2="256.00" y1="301.00" y2="306.00"/>
    </g>
    <g stroke="#000000" stroke-linecap="butt" stroke-width="1.0">
      <line x1="254.26" x2="257.15" y1="283.00" y2="278.00"/>
    </g>
    <g stroke="#000000" stroke-linecap="butt" stroke-width="1.0">
      <line x1="217.38" x2="214.49" y1="301.00" y2="306.00"/>
    </g>
    <g stroke="#000000" stroke-linecap="butt" stroke-width="1.0">
      <line x1="216.23" x2="213.34" y1="283.00" y2="278.00"/>
    </g>
    <text fill="#000000" font-family="helvetica" font-size="12pt" x="215.30" y="296.00">C</text>
    <text fill="#000000" font-family="helvetica" font-size="12pt" x="241.30" y="296.00">C</text>
    <text fill="#000000" font-family="helvetica" font-size="12pt" x="255.30" y="273.06">R</text>
    <text fill="#000000" font-family="helvetica" font-size="12pt" x="202.30" y="273.06">R</text>
    <text fill="#000000" font-family="helvetica" font-size="12pt" x="202.30" y="318.94">R</text>
    <text fill="#000000" font-family="helvetica" font-size="12pt" x="255.30" y="318.94">R</text>
    <text fill="#000000" font-family="helvetica" font-size="12pt" textLength="48" x="73.00" y="287.50"><tspan>Alkene</tspan></text>
    <g stroke="#000000" stroke-linecap="butt" stroke-width="1.0">
      <line x1="231.00" x2="241.00" y1="410.00" y2="410.00"/>
      <line x1="232.25" x2="239.75" y1="405.50" y2="405.50"/>
      <line x1="232.25" x2="239.75" y1="414.50" y2="414.50"/>
    </g>
    <g stroke="#000000" stroke-linecap="butt" stroke-width="1.0">
      <line x1="257.00" x2="268.00" y1="410.00" y2="410.00"/>
    </g>
    <g stroke="#000000" stroke-linecap="butt" stroke-width="1.0">
      <line x1="215.00" x2="204.00" y1="410.00" y2="410.00"/>
    </g>
    <text fill="#000000" font-family="helvetica" font-size="12pt" x="216.30" y="413.00">C</text>
    <text fill="#000000" font-family="helvetica" font-size="12pt" x="242.30" y="413.00">C</text>
    <text fill="#000000" font-family="helvetica" font-size="12pt" x="269.30" y="413.00">R</text>
    <text fill="#000000" font-family="helvetica" font-size="12pt" x="190.30" y="413.00">R</text>
    <text fill="#000000" font-family="helvetica" font-size="12pt" textLength="46" x="71.00" y="411.50"><tspan>Alkyne</tspan></text>
    <g stroke="#000000" stroke-linecap="butt" stroke-width="1.0">
      <line x1="220.00" x2="220.00" y1="522.00" y2="530.00"/>
      <line x1="216.00" x2="216.00" y1="522.00" y2="530.00"/>
    </g>
    <g stroke="#000000" stroke-linecap="butt" stroke-width="1.0">
      <line x1="210.00" x2="203.00" y1="545.11" y2="549.15"/>
    </g>
    <g stroke="#000000" stroke-linecap="butt" stroke-width="1.0">
      <line x1="226.00" x2="233.00" y1="545.11" y2="549.15"/>
    </g>
    <text fill="#000000" font-family="helvetica" font-size="12pt" x="211.30" y="543.49">C</text>
    <text fill="#000000" font-family="helvetica" font-size="12pt" x="234.30" y="556.73">N</text>
    <text fill="#000000" font-family="helvetica" font-size="12pt" x="211.30" y="517.00">O</text>
    <text fill="#000000" font-family="helvetica" font-size="12pt" x="189.30" y="556.73">R</text>
    <g stroke="#000000" stroke-width="1.0">
      <line x1="249.00" x2="264.00" y1="553.00" y2="544.34"/>
    </g>
    <text fill="#000000" font-family="helvetica" font-size="12pt" x="265.30" y="542.76">R</text>
    <g stroke="#000000" stroke-width="1.0">
      <line x1="239.00" x2="239.00" y1="564.00" y2="580.00"/>
    </g>
    <text fill="#000000" font-family="helvetica" font-size="12pt" x="232.30" y="593.49">R</text>
    <text fill="#000000" font-family="helvetica" font-size="12pt" textLength="46" x="71.00" y="535.50"><tspan>Amide</tspan></text>
    <g stroke="#000000" stroke-linecap="butt" stroke-width="1.0">
      <line x1="208.00" x2="219.00" y1="710.00" y2="710.00"/>
    </g>
    <g stroke="#000000" stroke-linecap="butt" stroke-width="1.0">
      <line x1="234.00" x2="242.00" y1="705.67" y2="701.05"/>
    </g>
    <g stroke="#000000" stroke-linecap="butt" stroke-width="1.0">
      <line x1="234.00" x2="242.00" y1="714.33" y2="718.95"/>
    </g>
    <text fill="#000000" font-family="helvetica" font-size="12pt" x="220.30" y="713.00">N</text>
    <text fill="#000000" font-family="helvetica" font-size="12pt" x="194.30" y="713.00">R</text>
    <text fill="#000000" font-family="helvetica" font-size="12pt" x="243.30" y="699.76">R</text>
    <text fill="#000000" font-family="helvetica" font-size="12pt" x="243.30" y="726.24">R</text>
    <text fill="#000000" font-family="helvetica" font-size="12pt" textLength="45" x="78.00" y="713.50"><tspan>Amine</tspan></text>
    <g stroke="#000000" stroke-width="1.0">
      <line x1="650.13" x2="673.07" y1="78.00" y2="64.75"/>
    </g>
    <g stroke="#000000" stroke-width="1.0">
      <line x1="696.00" x2="696.00" y1="78.00" y2="104.45"/>
    </g>
    <g stroke="#000000" stroke-width="1.0">
      <line x1="696.00" x2="673.07" y1="104.45" y2="117.70"/>
      <line x1="690.13" x2="672.93" y1="100.91" y2="110.85"/>
    </g>
    <g stroke="#000000" stroke-width="1.0">
      <line x1="650.13" x2="650.13" y1="78.00" y2="104.45"/>
      <line x1="656.13" x2="656.13" y1="81.31" y2="101.14"/>
    </g>
    <g stroke="#000000" stroke-width="1.0">
      <line x1="673.07" x2="696.00" y1="64.75" y2="78.00"/>
      <line x1="672.93" x2="690.13" y1="71.60" y2="81.54"/>
    </g>
    <g stroke="#000000" stroke-width="1.0">
      <line x1="650.13" x2="673.07" y1="104.45" y2="117.70"/>
    </g>
    <text fill="#000000" font-family="helvetica" font-size="12pt" textLength="63" x="478.00" y="97.50"><tspan>Aromatic</tspan></text>
    <g stroke="#000000" stroke-linecap="butt" stroke-width="1.0">
      <line x1="672.00" x2="672.00" y1="179.00" y2="187.00"/>
      <line x1="668.00" x2="668.00" y1="179.00" y2="187.00"/>
    </g>
    <g stroke="#000000" stroke-linecap="butt" stroke-width="1.0">
      <line x1="662.00" x2="655.00" y1="202.11" y2="206.15"/>
    </g>
    <g stroke="#000000" stroke-linecap="butt" stroke-width="1.0">
      <line x1="678.00" x2="685.00" y1="202.11" y2="206.15"/>
    </g>
    <text fill="#000000" font-family="helvetica" font-size="12pt" x="663.30" y="200.49">C</text>
    <text fill="#000000" font-family="helvetica" font-size="12pt" x="663.30" y="174.00">O</text>
    <text fill="#000000" font-family="helvetica" font-size="12pt" x="686.30" y="213.73">OH</text>
    <text fill="#000000" font-family="helvetica" font-size="12pt" x="641.30" y="213.73">R</text>
    <text fill="#000000" font-family="helvetica" font-size="12pt" textLength="107" x="459.00" y="195.50"><tspan>Carboxylic acid</tspan></text>
    <g stroke="#000000" stroke-linecap="butt" stroke-width="1.0">
      <line x1="660.00" x2="660.00" y1="290.00" y2="298.00"/>
      <line x1="656.00" x2="656.00" y1="290.00" y2="298.00"/>
    </g>
    <g stroke="#000000" stroke-linecap="butt" stroke-width="1.0">
      <line x1="650.00" x2="643.00" y1="313.11" y2="317.15"/>
    </g>
    <g stroke="#000000" stroke-linecap="butt" stroke-width="1.0">
      <line x1="689.00" x2="696.00" y1="317.08" y2="313.04"/>
    </g>
    <g stroke="#000000" stroke-linecap="butt" stroke-width="1.0">
      <line x1="666.00" x2="673.00" y1="313.11" y2="317.15"/>
    </g>
    <text fill="#000000" font-family="helvetica" font-size="12pt" x="651.30" y="311.49">C</text>
    <text fill="#000000" font-family="helvetica" font-size="12pt" x="674.30" y="324.73">O</text>
    <text fill="#000000" font-family="helvetica" font-size="12pt" x="651.30" y="285.00">O</text>
    <text fill="#000000" font-family="helvetica" font-size="12pt" x="697.30" y="311.49">R</text>
    <text fill="#000000" font-family="helvetica" font-size="12pt" x="629.30" y="324.73">R</text>
    <text fill="#000000" font-family="helvetica" font-size="12pt" x="491.30" y="307.00">Ester</text>
    <g stroke="#000000" stroke-linecap="butt" stroke-width="1.0">
      <line x1="653.00" x2="663.00" y1="414.00" y2="414.00"/>
    </g>
    <g stroke="#000000" stroke-linecap="butt" stroke-width="1.0">
      <line x1="679.00" x2="690.00" y1="414.00" y2="414.00"/>
    </g>
    <text fill="#000000" font-family="helvetica" font-size="12pt" x="664.30" y="417.00">O</text>
    <text fill="#000000" font-family="helvetica" font-size="12pt" x="639.30" y="417.00">R</text>
    <text fill="#000000" font-family="helvetica" font-size="12pt" x="691.30" y="417.00">R</text>
    <text fill="#000000" font-family="helvetica" font-size="12pt" textLength="37" x="501.00" y="419.50"><tspan>Ether</tspan></text>
    <g stroke="#000000" stroke-linecap="butt" stroke-width="1.0">
      <line x1="668.00" x2="668.00" y1="522.00" y2="530.00"/>
      <line x1="664.00" x2="664.00" y1="522.00" y2="530.00"/>
    </g>
    <g stroke="#000000" stroke-linecap="butt" stroke-width="1.0">
      <line x1="658.00" x2="651.00" y1="545.11" y2="549.15"/>
    </g>
    <g stroke="#000000" stroke-linecap="butt" stroke-width="1.0">
      <line x1="674.00" x2="681.00" y1="545.11" y2="549.15"/>
    </g>
    <text fill="#000000" font-family="helvetica" font-size="12pt" x="659.30" y="543.49">C</text>
    <text fill="#000000" font-family="helvetica" font-size="12pt" x="659.30" y="517.00">O</text>
    <text fill="#000000" font-family="helvetica" font-size="12pt" x="637.30" y="556.73">R</text>
    <text fill="#000000" font-family="helvetica" font-size="12pt" x="682.30" y="556.73">R</text>
    <text fill="#000000" font-family="helvetica" font-size="12pt" textLength="50" x="500.00" y="542.50"><tspan>Ketone</tspan></text>
    <g stroke="#000000" stroke-linecap="butt" stroke-width="1.0">
      <line x1="638.00" x2="648.00" y1="672.00" y2="672.00"/>
    </g>
    <g stroke="#000000" stroke-linecap="butt" stroke-width="1.0">
      <line x1="664.00" x2="675.00" y1="672.00" y2="672.00"/>
      <line x1="665.38" x2="673.63" y1="667.50" y2="667.50"/>
      <line x1="665.38" x2="673.63" y1="676.50" y2="676.50"/>
    </g>
    <text fill="#000000" font-family="helvetica" font-size="12pt" x="649.30" y="675.00">C</text>
    <text fill="#000000" font-family="helvetica" font-size="12pt" x="676.30" y="675.00">N</text>
    <text fill="#000000" font-family="helvetica" font-size="12pt" x="624.30" y="675.00">R</text>
    <text fill="#000000" font-family="helvetica" font-size="12pt" textLength="40" x="500.00" y="676.50"><tspan>Nitrile</tspan></text>
    <g stroke="#000000" stroke-linecap="butt" stroke-width="1.0">
      <line x1="649.00" x2="660.00" y1="771.00" y2="771.00"/>
    </g>
    <text fill="#000000" font-family="helvetica" font-size="12pt" x="635.30" y="774.00">R</text>
    <text fill="#000000" font-family="helvetica" font-size="12pt" x="661.30" y="774.00">SH</text>
    <text fill="#000000" font-family="helvetica" font-size="12pt" textLength="33" x="507.00" y="773.50"><tspan>Thiol</tspan></text>
    <g stroke="#000000" stroke-width="1.0">
      <line x1="383.00" x2="383.00" y1="377.88" y2="404.37"/>
    </g>
    <g stroke="#000000" stroke-width="1.0">
      <line x1="383.00" x2="383.00" y1="1013.13" y2="1039.62"/>
    </g>
    <g stroke="#000000" stroke-width="1.0">
      <line x1="383.00" x2="383.00" y1="589.29" y2="615.78"/>
    </g>
    <g stroke="#000000" stroke-width="1.0">
      <line x1="383.00" x2="383.00" y1="165.96" y2="192.45"/>
    </g>
    <g stroke="#000000" stroke-width="1.0">
      <line x1="383.00" x2="383.00" y1="298.41" y2="324.90"/>
    </g>
    <g stroke="#000000" stroke-width="1.0">
      <line x1="383.00" x2="383.00" y1="933.66" y2="960.15"/>
    </g>
    <g stroke="#000000" stroke-width="1.0">
      <line x1="383.00" x2="383.00" y1="960.15" y2="986.64"/>
    </g>
    <g stroke="#000000" stroke-width="1.0">
      <line x1="383.00" x2="383.00" y1="483.84" y2="510.33"/>
    </g>
    <g stroke="#000000" stroke-width="1.0">
      <line x1="383.00" x2="383.00" y1="854.19" y2="880.68"/>
    </g>
    <g stroke="#000000" stroke-width="1.0">
      <line x1="383.00" x2="383.00" y1="1039.62" y2="1066.11"/>
    </g>
    <g stroke="#000000" stroke-width="1.0">
      <line x1="383.00" x2="383.00" y1="880.68" y2="907.17"/>
    </g>
    <g stroke="#000000" stroke-width="1.0">
      <line x1="383.00" x2="383.00" y1="245.43" y2="271.92"/>
    </g>
    <g stroke="#000000" stroke-width="1.0">
      <line x1="383.00" x2="383.00" y1="271.92" y2="298.41"/>
    </g>
    <g stroke="#000000" stroke-width="1.0">
      <line x1="383.00" x2="383.00" y1="774.72" y2="801.21"/>
    </g>
    <g stroke="#000000" stroke-width="1.0">
      <line x1="383.00" x2="383.00" y1="827.70" y2="854.19"/>
    </g>
    <g stroke="#000000" stroke-width="1.0">
      <line x1="383.00" x2="383.00" y1="139.47" y2="165.96"/>
    </g>
    <g stroke="#000000" stroke-width="1.0">
      <line x1="383.00" x2="383.00" y1="510.33" y2="536.82"/>
    </g>
    <g stroke="#000000" stroke-width="1.0">
      <line x1="383.00" x2="383.00" y1="695.25" y2="721.74"/>
    </g>
    <g stroke="#000000" stroke-width="1.0">
      <line x1="383.00" x2="383.00" y1="563.31" y2="589.80"/>
    </g>
    <g stroke="#000000" stroke-width="1.0">
      <line x1="383.00" x2="383.00" y1="721.74" y2="748.23"/>
    </g>
    <g stroke="#000000" stroke-width="1.0">
      <line x1="383.00" x2="383.00" y1="536.82" y2="563.31"/>
    </g>
    <g stroke="#000000" stroke-width="1.0">
      <line x1="383.00" x2="383.00" y1="404.37" y2="430.86"/>
    </g>
    <g stroke="#000000" stroke-width="1.0">
      <line x1="383.00" x2="383.00" y1="430.86" y2="457.35"/>
    </g>
    <g stroke="#000000" stroke-width="1.0">
      <line x1="383.00" x2="383.00" y1="324.90" y2="351.39"/>
    </g>
    <g stroke="#000000" stroke-width="1.0">
      <line x1="383.00" x2="383.00" y1="748.23" y2="774.72"/>
    </g>
    <g stroke="#000000" stroke-width="1.0">
      <line x1="383.00" x2="383.00" y1="60.00" y2="86.49"/>
    </g>
    <g stroke="#000000" stroke-width="1.0">
      <line x1="383.00" x2="383.00" y1="907.17" y2="933.66"/>
    </g>
    <g stroke="#000000" stroke-width="1.0">
      <line x1="383.00" x2="383.00" y1="642.27" y2="668.76"/>
    </g>
    <g stroke="#000000" stroke-width="1.0">
      <line x1="383.00" x2="383.00" y1="351.39" y2="377.88"/>
    </g>
    <g stroke="#000000" stroke-width="1.0">
      <line x1="383.00" x2="383.00" y1="218.94" y2="245.43"/>
    </g>
    <g stroke="#000000" stroke-width="1.0">
      <line x1="383.00" x2="383.00" y1="457.35" y2="483.84"/>
    </g>
    <g stroke="#000000" stroke-width="1.0">
      <line x1="383.00" x2="383.00" y1="801.21" y2="827.70"/>
    </g>
    <g stroke="#000000" stroke-width="1.0">
      <line x1="383.00" x2="383.00" y1="192.45" y2="218.94"/>
    </g>
    <g stroke="#000000" stroke-width="1.0">
      <line x1="383.00" x2="383.00" y1="986.64" y2="1013.13"/>
    </g>
    <g stroke="#000000" stroke-width="1.0">
      <line x1="383.00" x2="383.00" y1="668.76" y2="695.25"/>
    </g>
    <g stroke="#000000" stroke-width="1.0">
      <line x1="383.00" x2="383.00" y1="112.98" y2="139.47"/>
    </g>
    <g stroke="#000000" stroke-width="1.0">
      <line x1="383.00" x2="383.00" y1="86.49" y2="112.98"/>
    </g>
    <g stroke="#000000" stroke-width="1.0">
      <line x1="383.00" x2="383.00" y1="615.78" y2="642.27"/>
    </g>
  </g>
</svg>